<svg xmlns="http://www.w3.org/2000/svg" xmlns:xlink="http://www.w3.org/1999/xlink" width="500" zoomAndPan="magnify" viewBox="0 0 375 374.999991" height="500" preserveAspectRatio="xMidYMid meet" version="1.0"><defs><g/><clipPath id="b474f4bb23"><path d="M 187.5 0 C 83.945312 0 0 83.945312 0 187.5 C 0 291.054688 83.945312 375 187.5 375 C 291.054688 375 375 291.054688 375 187.5 C 375 83.945312 291.054688 0 187.5 0 Z M 187.5 0 " clip-rule="nonzero"/></clipPath><clipPath id="0277b5a6a5"><path d="M 0 0 L 375 0 L 375 375 L 0 375 Z M 0 0 " clip-rule="nonzero"/></clipPath><clipPath id="5e2e9e97df"><path d="M 187.5 0 C 83.945312 0 0 83.945312 0 187.5 C 0 291.054688 83.945312 375 187.5 375 C 291.054688 375 375 291.054688 375 187.5 C 375 83.945312 291.054688 0 187.5 0 Z M 187.5 0 " clip-rule="nonzero"/></clipPath><clipPath id="4a5c3c6f63"><rect x="0" width="375" y="0" height="375"/></clipPath></defs><g clip-path="url(#b474f4bb23)"><g transform="matrix(1, 0, 0, 1, 0, 0)"><g clip-path="url(#4a5c3c6f63)"><g clip-path="url(#0277b5a6a5)"><g clip-path="url(#5e2e9e97df)"><rect x="-82.5" width="540" fill="#57c1be" height="539.999987" y="-82.499998" fill-opacity="1"/></g></g></g></g></g><g fill="#f0efef" fill-opacity="1"><g transform="translate(76.585712, 168.751714)"><g><path d="M 31.195312 0 L 31.195312 -35.84375 L 56.691406 -35.84375 C 78.289062 -35.84375 90.285156 -50.390625 90.285156 -67.789062 C 90.285156 -85.335938 78.4375 -100.035156 56.691406 -100.035156 L 9.898438 -100.035156 L 9.898438 0 Z M 68.539062 -67.941406 C 68.539062 -59.542969 62.242188 -54.140625 53.84375 -54.140625 L 31.195312 -54.140625 L 31.195312 -81.738281 L 53.84375 -81.738281 C 62.242188 -81.738281 68.539062 -76.1875 68.539062 -67.941406 Z M 68.539062 -67.941406 "/></g></g></g><g fill="#f0efef" fill-opacity="1"><g transform="translate(170.171117, 168.751714)"><g><path d="M 118.332031 0 L 118.332031 -100.035156 L 88.335938 -100.035156 L 64.039062 -37.644531 L 39.742188 -100.035156 L 9.898438 -100.035156 L 9.898438 0 L 31.195312 0 L 31.195312 -71.988281 L 59.390625 0 L 68.691406 0 L 96.886719 -71.988281 L 96.886719 0 Z M 118.332031 0 "/></g></g></g><g fill="#f0efef" fill-opacity="1"><g transform="translate(28.656028, 294.50046)"><g><path d="M 54.449219 0 L 54.449219 -81.296875 L 83.546875 -81.296875 L 83.546875 -100.046875 L 3.75 -100.046875 L 3.75 -81.296875 L 33 -81.296875 L 33 0 Z M 54.449219 0 "/></g></g></g><g fill="#f0efef" fill-opacity="1"><g transform="translate(115.949174, 294.50046)"><g><path d="M 18.898438 -83.097656 C 25.199219 -83.097656 30.296875 -88.195312 30.296875 -94.496094 C 30.296875 -100.796875 25.199219 -105.894531 18.898438 -105.894531 C 12.75 -105.894531 7.5 -100.796875 7.5 -94.496094 C 7.5 -88.195312 12.75 -83.097656 18.898438 -83.097656 Z M 28.5 0 L 28.5 -72.445312 L 9.449219 -72.445312 L 9.449219 0 Z M 28.5 0 "/></g></g></g><g fill="#f0efef" fill-opacity="1"><g transform="translate(153.896189, 294.50046)"><g><path d="M 28.5 0 L 28.5 -100.046875 L 9.449219 -100.046875 L 9.449219 0 Z M 28.5 0 "/></g></g></g><g fill="#f0efef" fill-opacity="1"><g transform="translate(191.843205, 294.50046)"><g><path d="M 4.800781 -36.296875 C 4.800781 -13.050781 21.449219 1.800781 43.496094 1.800781 C 54.746094 1.800781 65.996094 -1.5 73.347656 -8.25 L 64.945312 -20.550781 C 60.296875 -16.050781 52.347656 -13.347656 45.597656 -13.347656 C 33.296875 -13.347656 25.949219 -21 24.75 -30.148438 L 78.597656 -30.148438 L 78.597656 -34.347656 C 78.597656 -58.046875 63.898438 -74.246094 42.296875 -74.246094 C 20.25 -74.246094 4.800781 -57.296875 4.800781 -36.296875 Z M 42.296875 -59.097656 C 54.898438 -59.097656 59.695312 -49.949219 60.148438 -43.046875 L 24.449219 -43.046875 C 25.347656 -50.246094 30.449219 -59.097656 42.296875 -59.097656 Z M 42.296875 -59.097656 "/></g></g></g><g fill="#f0efef" fill-opacity="1"><g transform="translate(274.786704, 294.50046)"><g><path d="M 3.148438 -9.449219 C 10.800781 -2.398438 22.949219 1.800781 35.546875 1.800781 C 55.648438 1.800781 66.898438 -8.097656 66.898438 -21.449219 C 66.898438 -39.449219 50.246094 -42.746094 37.796875 -45.148438 C 29.699219 -46.796875 24 -48.449219 24 -52.949219 C 24 -57.148438 28.5 -59.695312 35.398438 -59.695312 C 44.246094 -59.695312 52.496094 -55.945312 56.847656 -51.296875 L 64.347656 -64.347656 C 57.296875 -70.046875 47.546875 -74.246094 35.25 -74.246094 C 16.199219 -74.246094 5.550781 -63.597656 5.550781 -51.449219 C 5.550781 -34.199219 21.597656 -31.199219 34.046875 -28.796875 C 42.296875 -27.148438 48.597656 -25.347656 48.597656 -20.25 C 48.597656 -15.75 44.699219 -12.898438 36.449219 -12.898438 C 27.449219 -12.898438 16.648438 -17.847656 11.398438 -22.800781 Z M 3.148438 -9.449219 "/></g></g></g></svg>