<svg xmlns="http://www.w3.org/2000/svg" xmlns:xlink="http://www.w3.org/1999/xlink" width="500" zoomAndPan="magnify" viewBox="0 0 375 374.999991" height="500" preserveAspectRatio="xMidYMid meet" version="1.0"><defs><g/><clipPath id="aa61bedd56"><path d="M 187.5 0 C 83.945312 0 0 83.945312 0 187.5 C 0 291.054688 83.945312 375 187.5 375 C 291.054688 375 375 291.054688 375 187.5 C 375 83.945312 291.054688 0 187.5 0 Z M 187.5 0 " clip-rule="nonzero"/></clipPath><clipPath id="018dc9b40e"><path d="M 0 0 L 375 0 L 375 375 L 0 375 Z M 0 0 " clip-rule="nonzero"/></clipPath><clipPath id="aa8c07def9"><path d="M 187.5 0 C 83.945312 0 0 83.945312 0 187.5 C 0 291.054688 83.945312 375 187.5 375 C 291.054688 375 375 291.054688 375 187.5 C 375 83.945312 291.054688 0 187.5 0 Z M 187.5 0 " clip-rule="nonzero"/></clipPath><clipPath id="f74eb23f36"><rect x="0" width="375" y="0" height="375"/></clipPath></defs><g clip-path="url(#aa61bedd56)"><g transform="matrix(1, 0, 0, 1, 0, 0)"><g clip-path="url(#f74eb23f36)"><g clip-path="url(#018dc9b40e)"><g clip-path="url(#aa8c07def9)"><rect x="-82.5" width="540" fill="#57c1be" height="539.999987" y="-82.499998" fill-opacity="1"/></g></g></g></g></g><g fill="#f0efef" fill-opacity="1"><g transform="translate(23.839622, 225.337192)"><g><path d="M 18.925781 0 L 18.925781 -21.75 L 34.398438 -21.75 C 47.5 -21.75 54.78125 -30.574219 54.78125 -41.132812 C 54.78125 -51.777344 47.589844 -60.695312 34.398438 -60.695312 L 6.003906 -60.695312 L 6.003906 0 Z M 41.585938 -41.222656 C 41.585938 -36.125 37.765625 -32.851562 32.667969 -32.851562 L 18.925781 -32.851562 L 18.925781 -49.59375 L 32.667969 -49.59375 C 37.765625 -49.59375 41.585938 -46.226562 41.585938 -41.222656 Z M 41.585938 -41.222656 "/></g></g></g><g fill="#f0efef" fill-opacity="1"><g transform="translate(80.621173, 225.337192)"><g><path d="M 71.796875 0 L 71.796875 -60.695312 L 53.597656 -60.695312 L 38.855469 -22.839844 L 24.113281 -60.695312 L 6.003906 -60.695312 L 6.003906 0 L 18.925781 0 L 18.925781 -43.679688 L 36.035156 0 L 41.675781 0 L 58.785156 -43.679688 L 58.785156 0 Z M 71.796875 0 "/></g></g></g><g fill="#f0efef" fill-opacity="1"><g transform="translate(158.422819, 225.337192)"><g><path d="M 33.03125 0 L 33.03125 -49.320312 L 50.6875 -49.320312 L 50.6875 -60.695312 L 2.273438 -60.695312 L 2.273438 -49.320312 L 20.019531 -49.320312 L 20.019531 0 Z M 33.03125 0 "/></g></g></g><g fill="#f0efef" fill-opacity="1"><g transform="translate(211.382536, 225.337192)"><g><path d="M 11.464844 -50.414062 C 15.289062 -50.414062 18.382812 -53.507812 18.382812 -57.328125 C 18.382812 -61.148438 15.289062 -64.246094 11.464844 -64.246094 C 7.734375 -64.246094 4.550781 -61.148438 4.550781 -57.328125 C 4.550781 -53.507812 7.734375 -50.414062 11.464844 -50.414062 Z M 17.289062 0 L 17.289062 -43.953125 L 5.734375 -43.953125 L 5.734375 0 Z M 17.289062 0 "/></g></g></g><g fill="#f0efef" fill-opacity="1"><g transform="translate(234.404534, 225.337192)"><g><path d="M 17.289062 0 L 17.289062 -60.695312 L 5.734375 -60.695312 L 5.734375 0 Z M 17.289062 0 "/></g></g></g><g fill="#f0efef" fill-opacity="1"><g transform="translate(257.426566, 225.337192)"><g><path d="M 2.910156 -22.019531 C 2.910156 -7.917969 13.011719 1.09375 26.390625 1.09375 C 33.214844 1.09375 40.039062 -0.910156 44.496094 -5.003906 L 39.402344 -12.464844 C 36.582031 -9.738281 31.757812 -8.097656 27.664062 -8.097656 C 20.203125 -8.097656 15.742188 -12.738281 15.015625 -18.289062 L 47.683594 -18.289062 L 47.683594 -20.839844 C 47.683594 -35.214844 38.765625 -45.042969 25.660156 -45.042969 C 12.285156 -45.042969 2.910156 -34.761719 2.910156 -22.019531 Z M 25.660156 -35.851562 C 33.304688 -35.851562 36.21875 -30.300781 36.488281 -26.117188 L 14.832031 -26.117188 C 15.378906 -30.484375 18.472656 -35.851562 25.660156 -35.851562 Z M 25.660156 -35.851562 "/></g></g></g><g fill="#f0efef" fill-opacity="1"><g transform="translate(307.747379, 225.337192)"><g><path d="M 1.910156 -5.734375 C 6.550781 -1.457031 13.921875 1.09375 21.566406 1.09375 C 33.761719 1.09375 40.585938 -4.914062 40.585938 -13.011719 C 40.585938 -23.933594 30.484375 -25.933594 22.929688 -27.390625 C 18.015625 -28.390625 14.558594 -29.390625 14.558594 -32.121094 C 14.558594 -34.671875 17.289062 -36.21875 21.476562 -36.21875 C 26.84375 -36.21875 31.847656 -33.941406 34.488281 -31.121094 L 39.039062 -39.039062 C 34.761719 -42.496094 28.847656 -45.042969 21.382812 -45.042969 C 9.828125 -45.042969 3.367188 -38.582031 3.367188 -31.210938 C 3.367188 -20.746094 13.105469 -18.925781 20.65625 -17.472656 C 25.660156 -16.46875 29.484375 -15.378906 29.484375 -12.285156 C 29.484375 -9.554688 27.117188 -7.824219 22.113281 -7.824219 C 16.652344 -7.824219 10.101562 -10.828125 6.914062 -13.832031 Z M 1.910156 -5.734375 "/></g></g></g></svg>